<svg width="35" height="35" viewBox="0 0 35 35" fill="none" xmlns="http://www.w3.org/2000/svg">
<circle cx="17.5" cy="17.5" r="17.5" fill="#D9D9D9"/>
<path d="M17.1 21.3C17.3 21.55 17.7 21.55 17.9 21.3L20.9 18.15C21.15 17.9 20.9 17.5 20.5 17.5H18.5C18.5 17.5 18.6 15.2 18.5 14C18.45 13.45 18.05 13 17.5 13C16.95 13 16.55 13.45 16.5 14C16.4 15.15 16.5 17.5 16.5 17.5H14.5C14.1 17.5 13.85 17.9 14.1 18.2L17.1 21.3Z" fill="#315232"/>
<path d="M17.3333 2C8.86133 2 2 8.86133 2 17.3333C2 24.1187 6.38933 29.8493 12.484 31.88C13.2507 32.0147 13.5373 31.5547 13.5373 31.152C13.5373 30.788 13.5187 29.5813 13.5187 28.296C9.66667 29.0053 8.67067 27.3573 8.364 26.496C8.19067 26.0547 7.444 24.6933 6.79067 24.3293C6.25467 24.0413 5.488 23.332 6.772 23.3133C7.98 23.2947 8.84267 24.4253 9.13067 24.8853C10.5107 27.2053 12.7147 26.552 13.596 26.1493C13.7293 25.1533 14.132 24.4827 14.5733 24.0987C11.1613 23.716 7.59733 22.3933 7.59733 16.528C7.59733 14.8613 8.19067 13.4813 9.168 12.408C9.01467 12.024 8.47867 10.452 9.32133 8.344C9.32133 8.344 10.6053 7.94133 13.5387 9.916C14.7653 9.57067 16.068 9.39867 17.372 9.39867C18.6747 9.39867 19.9787 9.572 21.2053 9.916C24.1387 7.92267 25.4213 8.344 25.4213 8.344C26.2653 10.452 25.728 12.024 25.5747 12.408C26.552 13.4813 27.1467 14.8413 27.1467 16.528C27.1467 22.412 23.5627 23.7147 20.1507 24.0987C20.7067 24.5787 21.1853 25.4987 21.1853 26.936C21.1853 28.9867 21.1667 30.6347 21.1667 31.152C21.1667 31.5547 21.4547 32.0347 22.22 31.8813C28.2787 29.8493 32.6667 24.0987 32.6667 17.3333C32.6667 8.86133 25.8053 2 17.3333 2Z" fill="#315232"/>
</svg>
